# xmcd
#
# Track frame offsets: 
#        150
#        11741
#        23571
#        36243
#        48539
#        57015
#        72422
#        86765
#        97199
#        108529
#        120999
#        132589
#        144068
#        160156
#        174311
#        186936
#        197550
#        210067
#        221505
#        233903
#        259638
#        271276
#        284367
#        292672
#        303878
#        317202
#        329240
#
# Disc length: 4561 seconds
#
# Revision: 0
# Processed by: cddbd v1.5.2PL0 Copyright (c) Steve Scherf et al.
# Submitted via: ExactAudioCopy v0.99pb5
#
DISCID=8611cf1b
DTITLE=Various Artist - Nuggets Of The Golden Age Of Gospel 1945-1958 - Disc 
DTITLE=2
DYEAR=2009
DGENRE=Gospel
TTITLE0=Bessie Griffin and The Caravans - Let Us Run
TTITLE1=Fairfield Four - Come Over Here
TTITLE2=Ann Cole and The Colmanaires - Out On The Ocean Sailing
TTITLE3=Phil Phillips and The Gateway Quartet - Four and Twenty Elders
TTITLE4=Mahalia Jackson and The Belleville Choir - No Matter How You Pra
TTITLE4=y
TTITLE5=Jones Brothers Quartet - Amazing Grace
TTITLE6=Mayflower Singers - Ship Of Zion
TTITLE7=Keys Of Heaven - Jeasus Bears The Cross
TTITLE8=Prisonaires - My God Is Real
TTITLE9=Tony Harris and The Traveling Four - All On The Altar
TTITLE10=Violinaires - Another Soldier Gone
TTITLE11=Sister Marie Knight and The Sam Price Trio - Trouble In Mind
TTITLE12=Afro Quintette - Toll The Bells
TTITLE13=Detroit Harmonettes - I Need Thee
TTITLE14=Bells Of Joy - There'll Be No More Sorrow
TTITLE15=Ever Ready Gospel Singers - One Day Whin I Was Walking (I'm I
TTITLE15=n His Care)
TTITLE16=Gene Allison and Israelite Travelers - Send My Child Home To Me
TTITLE17=Pilgrim Jubilees - Angel
TTITLE18=Skylight Singers - Lord Have Mercy
TTITLE19=Reverend Utah Smith - Two Wings Flying Home (Parts 1 and 2)
TTITLE20=Little Johnny Taylor and The Stars Of Bethel - There Is A Fount
TTITLE20=ain
TTITLE21=Swannee Quintet - Cry Sometime
TTITLE22=Ernestine Washington and The Milleraires - Holding On - Part 2
TTITLE23=Zion Travelers - Where Is My Wandering Child
TTITLE24=Reverend Ballenger and Willie Dixon - This Train
TTITLE25=Reverend Cleveland and The Caravans - Old Time Religion
TTITLE26=Rebert H Harris and Christland Singers - Nothing Will Move Me (
TTITLE26=From The Love Of God)
EXTD=
EXTT0=
EXTT1=
EXTT2=
EXTT3=
EXTT4=
EXTT5=
EXTT6=
EXTT7=
EXTT8=
EXTT9=
EXTT10=
EXTT11=
EXTT12=
EXTT13=
EXTT14=
EXTT15=
EXTT16=
EXTT17=
EXTT18=
EXTT19=
EXTT20=
EXTT21=
EXTT22=
EXTT23=
EXTT24=
EXTT25=
EXTT26=
PLAYORDER=
